<svg width="998.28223" height="772.7732500000001" xmlns="http://www.w3.org/2000/svg">
 <title>special_event</title>

 <g>
  <title>background</title>
  <rect fill="none" id="canvas_background" height="402" width="582" y="-1" x="-1"/>
 </g>
 <g>
  <title>Layer 1</title>
  <path id="svg_1" fill="#3f3d56" d="m443.437503,175.71838a368.02149,368.02149 0 0 1 -120.72217,-20.26465c-52.05222,-17.99711 -94.69483,-42.8208 -126.74222,-73.78174c-60.62106,-58.56592 -110.32126,-67.39209 -141.33346,-64.48584c-33.57032,3.14746 -53.11084,20.33789 -53.3042,20.51123l-1.33545,-1.48876c0.19726,-0.17724 20.14062,-17.75781 54.32324,-21.00146c20.04541,-1.90088 41.00781,1.41113 62.30664,9.84717c26.56055,10.52 53.72314,29.085 80.73291,55.17919c31.83643,30.75733 74.231,55.4292 126.00586,73.32959c95.04736,32.86133 202.16943,24.90528 293.89892,-21.8291c30.3711,-15.47461 60.38868,-26.03711 89.21778,-31.394c36.35351,-6.75684 70.83008,-5.18848 102.47949,4.6582c69.54883,21.63721 117.05371,20.48975 144.6582,15.71924c29.78418,-5.148 43.29786,-15.45068 43.43067,-15.5542l1.22851,1.57862c-0.55957,0.435 -14.0459,10.71386 -44.31933,15.94628c-27.82227,4.80957 -75.667,5.97461 -145.5918,-15.78076c-70.80078,-22.02441 -142.50879,2.312 -190.19531,26.60793a383.87963,383.87963 0 0 1 -145.63667,41.08489q-14.60308,1.11768 -29.10161,1.11817z"/>
  <circle id="svg_2" fill="#029811" r="20.26772" cy="180.26772" cx="439.40025"/>
  <circle id="svg_3" fill="#029811" r="20.26772" cy="99.26772" cx="753.40025"/>
  <circle id="svg_4" fill="#029811" r="20.26772" cy="20.26772" cx="100.40025"/>
  <path id="svg_5" fill="#3f3d56" d="m584.743783,484.48244l0,195.827l30.79041,0l0,-178.58437l123.16165,0l0,178.5844l30.79042,0l0,-391.65406l-30.79042,0c-10.20308,0 -25.86395,53.13887 -25.86395,106.53483c0,40.24749 4.70035,74.74 11.384,89.2922l-139.47211,0zm293.42417,0l-0.29948,0c0.10058,-0.219 0.1998,-0.45013 0.29948,-0.67813l0,0.67813z"/>
  <path id="svg_6" fill="#2f2e41" d="m698.845213,191.72833l-0.0001,0c-25.27389,0 -45.76244,22.73778 -45.76244,50.78624l0,35.63588l10.96,0l6.34519,-13.20338l-1.58632,13.20338l70.44643,0l5.76836,-12.00307l-1.44208,12.00307l7.93151,0l0,-27.98055c0.00001,-32.27635 -23.57693,-58.44157 -52.66055,-58.44157z"/>
  <path id="svg_7" fill="#2f2e41" d="m646.409503,424.55421l-28.09776,11.94155l-97.63969,79.37615a28.738,28.738 0 0 0 -6.322,15.45377c-0.70244,9.13177 -30.20508,56.89795 -19.66842,63.21995s48.46862,25.288 50.576,12.644s13.34644,-66.73217 13.34644,-66.73217l94.12747,-84.29326l-6.32204,-31.60999z"/>
  <path id="svg_8" fill="#2f2e41" d="m536.125813,596.65296l-11.94154,35.12219s12.644,13.34643 6.322,24.58554l0,38.63441l-9.83421,0l-2.80978,-20.37087s-11.20122,20.11351 -16.85865,20.37087c-11.86,0.53951 -35.34608,4.75815 -36.04853,-1.56385s17.785,-12.485 17.785,-12.485l19.66843,-54.08818l8.42932,-33.01486l25.28796,2.80975z"/>
  <path id="svg_9" fill="#2f2e41" d="m719.463663,415.42244s6.322,61.81506 -11.94155,73.05416s-99.04458,47.06374 -99.04458,47.06374s34.41975,32.31242 27.39531,40.0393s-38.63441,28.8002 -42.84908,24.58554s-51.2784,-54.79062 -45.65885,-70.94683s83.59082,-68.8395 83.59082,-68.8395l9.13177,-33.01486l2.80978,-26.69287l29.50264,-18.966l47.06374,33.71732z"/>
  <circle id="svg_10" fill="#ffb9b9" r="29.2837" cy="242.21767" cx="687.28129"/>
  <path id="svg_11" fill="#ffb9b9" d="m709.980673,254.21162s-1.40489,26.69286 20.37087,35.12219s-54.08818,63.21995 -54.08818,63.21995l0,-61.11266s9.83422,-10.53666 0,-26.69286l33.71731,-10.53662z"/>
  <path id="svg_12" fill="#ffb9b9" d="m756.693183,379.59781l-5.61955,27.39531l-16.85865,94.1275s14.04888,40.0393 -4.91711,39.33686s-9.83421,-43.55152 -9.83421,-43.55152l9.83421,-77.97127l0,-30.20507l27.39531,-9.13181z"/>
  <path id="svg_13" fill="#ffb9b9" d="m635.872843,366.25137l-6.322,24.58554l-28.8002,69.54194s-19.66843,33.01486 -3.51222,32.31242s16.15621,-32.31242 16.15621,-32.31242l33.01486,-56.19551l0,-31.61l-10.53665,-6.32197z"/>
  <path id="svg_14" fill="#2f2e41" d="m630.955733,571.36498l23.18065,21.77576s16.15621,-3.51222 22.4782,15.45376s10.53666,30.90753 10.53666,30.90753l-8.42932,4.91711l-10.53666,-14.75132s-6.322,26.69287 -12.644,28.8002s-37.932,16.15621 -35.12219,0l15.45376,-22.47821s2.10733,-25.288 -4.21466,-27.39531s-23.18065,-23.18064 -23.18065,-23.18064l22.47821,-14.04888z"/>
  <path id="svg_15" fill="#3f3d56" d="m720.577223,437.1982s-66.02973,-23.88309 -70.24439,-21.77576a31.67707,31.67707 0 0 1 -9.8941,2.568l0.05989,-9.59241s21.77576,-7.72688 33.7173,-2.80977s48.46863,26.69287 48.46863,26.69287l-2.10733,4.91707z"/>
  <path id="svg_16" fill="#d0cde1" d="m680.478033,338.50484s18.966,-21.77576 24.58553,-35.12219a34.4852,34.4852 0 0 1 18.23114,-17.92703s42.179,9.49774 41.47659,26.35639s-26.69287,42.84908 -26.69287,42.84908s3.51222,93.425 -15.45376,92.02014a40.68115,40.68115 0 0 1 -8.42933,-16.85865c-2.10733,-9.83421 -67.43461,-20.37087 -67.43461,-20.37087s-5.61955,9.83421 -6.322,5.61955s5.61955,-107.47391 5.61955,-107.47391l33.49742,-22.14173l0.92234,53.04922z"/>
  <path id="svg_17" fill="#d0cde1" d="m759.360353,305.02609l0.47037,0.264a9.69114,9.69114 0 0 1 4.94846,8.45269l-0.00721,52.13043a9.76765,9.76765 0 0 0 3.47464,7.4341c2.70588,2.30158 5.21508,5.61814 0.0369,7.3442c-8.42933,2.80978 -41.44419,16.85865 -42.14663,11.94155s-2.10734,-10.53666 0,-10.53666c1.64977,0 11.47944,-50.371 19.37772,-71.90771a9.69273,9.69273 0 0 1 13.84575,-5.1226z"/>
  <path id="svg_18" fill="#d0cde1" d="m655.541273,305.13876l-9.83422,2.80977l-11.2391,48.46863s-13.34643,2.80977 -9.13177,7.72688s21.77576,17.5611 21.77576,17.5611l8.42933,-76.56638z"/>
  <path id="svg_19" fill="#2f2e41" d="m711.854643,205.71826a24.00019,24.00019 0 0 0 -18.93688,-9.66364l-0.89845,0c-17.32278,0 -31.36559,15.67512 -31.36559,35.01138l0,0.00008l5.8044,0l0.9374,-7.13514l1.37441,7.13514l34.4256,0l2.88421,-6.03646l-0.72107,6.03646l6.7725,0q4.74044,23.54219 -13.62243,47.08437l11.53679,0l5.76836,-12.07292l-1.44207,12.07292l21.99194,0l4.32629,-27.76778c0,-20.7955 -12.08279,-38.42966 -28.83541,-44.66441z"/>
  <path id="svg_20" fill="#3f3d56" d="m123.534973,529.72833c7.38992,-16.08983 12.58694,-54.22709 12.58694,-98.72739c0,-59.03812 -17.31569,-117.792 -28.5969,-117.792l-34.0439,0l0,433.03877l34.0439,0l0,-197.45478l136.17571,0l0,197.45478l34.04393,0l0,-216.51938l-154.20968,0zm138.19968,-0.74978c0.11021,0.25209 0.21993,0.50767 0.33113,0.74978l-0.33113,0l0,-0.74978z"/>
  <path id="svg_21" fill="#9f616a" d="m265.433233,450.72833s41,17 28,27s-40,-12 -39,-15s-4,-10 -4,-10l15,-2z"/>
  <path id="svg_22" fill="#2f2e41" d="m229.433233,316.72833l13,12l3,35l10,37s17,35 14,42s3,9 3,9l-23,9s-25,-28 -25,-34s5,-110 5,-110z"/>
  <path id="svg_24" fill="#003d06" d="m352.433233,676.72833s-5,23 -6,25s19,9 19,9l24,-17s-10,-22 -10,-26l-27,9z"/>
  <path id="svg_25" fill="#2f2e41" d="m221.433233,452.72833l7,8s145,18 148,46s24,160 12,164s-43,19 -43,11s-20,-118 -16,-138c0,0 -173,-22 -177,-47s4,-36 4,-36l65,-8z"/>
  <path id="svg_26" opacity="0.1" d="m221.433233,452.72833l7,8s145,18 148,46s24,160 12,164s-43,19 -43,11s-20,-118 -16,-138c0,0 -173,-22 -177,-47s4,-36 4,-36l65,-8z"/>
  <path id="svg_27" fill="#2f2e41" d="m350.433233,699.72833s-4,-9 -6,-6s-9,38 -2,38s71,16 80,14s26,1 24,-9s-12,-11 -12,-11s-37,-22 -39,-33s-13,-5 -13,-5l0,7s-21,16 -32,5z"/>
  <path id="svg_28" fill="#9f616a" d="m160.433233,240.72833s7,34 -8,37s19,23 19,23l22,12l16,-16s-14.5,-29.5 -3.5,-51.5s-45.5,-4.5 -45.5,-4.5z"/>
  <path id="svg_29" fill="#9f616a" d="m209.433233,296.72833l-16,16l-22,-12s-34,-20 -19,-23c9.65,-1.93 10.18994,-16.69 9.36,-26.97a92.99156,92.99156 0 0 0 -1.36,-10.03s56.5,-17.5 45.5,4.5a38.36144,38.36144 0 0 0 -3.43994,10.76c-3.37012,19.76997 6.93994,40.74 6.93994,40.74z"/>
  <polygon id="svg_30" fill="#003d06" points="265.433 705.728 265.433 728.728 303.433 728.728 306.433 719.728 302.433 695.728 265.433 705.728"/>
  <path id="svg_31" fill="#2f2e41" d="m108.433233,472.72833s0,59 24,61s110,13 110,13s5,98 14,130s1,34 9,36s42,-5 41,-12s-5,-184 -5,-184s9,-38 -111,-56l-82,12z"/>
  <path id="svg_32" fill="#2f2e41" d="m268.433233,721.72833s-6,-13 -7,-9s-13,39 -1,42s50,19 75,18s28,-2 28,-2s7,-10 -2,-16s-46,-41 -48,-45s-17,-7 -17,0s-21,21 -28,12z"/>
  <path id="svg_33" opacity="0.1" d="m205.933233,245.22833a38.36144,38.36144 0 0 0 -3.43994,10.76c-4.98,3.01 -8.31006,2.24 -14.56006,2.24c-9.27,0 -13.01,-11.85 -19,-18c-0.47,-5.71 -8.5,0.5 -8.5,0.5s56.5,-17.5 45.5,4.5z"/>
  <circle id="svg_34" fill="#9f616a" r="33" cy="224.72833" cx="185.43324"/>
  <path id="svg_35" fill="#003d06" d="m242.433233,328.72833s-5,36 -8,49s-7,73 -9,81s-14,10 -38,7a45.10278,45.10278 0 0 0 -4.54,-0.34c-14.78,-0.47 -31.68994,5.06 -47.34,9.4c-9,2.5 -17.59,4.6 -25.12,4.94c-11.4,0.52 -14.74,-12.12 -14.35,-25.8c0.37,-12.73 3.98,-26.38 7.35,-31.2c6.07007,-8.68 0.1,-86.61 2.34009,-112.31l0,-0.01c0.33985,-3.92 0.86987,-6.62 1.65991,-7.68c6,-8 45,-28 49.37,-27.19c4.36,0.81 41.63,24.19 41.63,24.19c9,0 8.71,-9.76 8.71,-9.76s6.29,11.76 18.29,14.76s17,24 17,24z"/>
  <path id="svg_36" fill="#9f616a" d="m175.585933,458.37108s64.416,2.05106 53.13165,9.70415s-61.28435,14.6531 -62.28435,4.6531s9.1527,-14.35725 9.1527,-14.35725z"/>
  <path id="svg_37" opacity="0.1" d="m182.893193,465.3883c0.21,3.84 -10.11987,12.49 -13.46,18.34c-1.85,3.24 -16.16992,-1.03 -33.88,-8.94a347.39653,347.39653 0 0 1 -39.47,-20.86c0.37,-12.73 3.98,-26.38 7.35,-31.2c6.07007,-8.68 0.1,-86.61 2.34009,-112.31l0,-0.01a11.08754,11.08754 0 0 1 1.65991,-0.68l12,0c41,19 -6,101 -6,101s62,51 68,53a1.79787,1.79787 0 0 1 1.46,1.66z"/>
  <path id="svg_38" fill="#2f2e41" d="m119.433233,303.72833l-12,0s-11,3 -20,23s-42,82 -13,106s91,52 95,45s18,-18 12,-20s-68,-53 -68,-53s47,-82 6,-101z"/>
  <path id="svg_39" fill="#2f2e41" d="m180.356393,209.37262s1.4482,-20.04751 19.31387,-11.87327s16.69989,-14.35666 11.301,-18.33813s-5.22793,-4.96676 -24.97392,-2.30289s-58.08172,7.17725 -45.68608,46.8805s23.622,29.48955 23.622,29.48955s-9.853,-35.72772 0.13044,-28.921l9.98341,6.80673l5.26829,-1.11587l1.04099,-20.62562z"/>
  <path id="svg_40" fill="#3f3d56" d="m917.535353,498.04616c0,-18.04985 -134.1295,-32.68217 -299.58656,-32.68217s-299.58657,14.63232 -299.58657,32.68217c0,6.99563 20.15906,13.47711 54.47029,18.79315l0,223.59962l16.34108,0l0,-221.29418c54.95435,7.08431 137.04185,11.58358 228.7752,11.58358c92.49143,0 175.1821,-4.57349 230.13695,-11.75928l0,221.46988l16.34108,0l0,-223.814c33.47808,-5.27562 53.10853,-11.67665 53.10853,-18.57877z"/>
  <ellipse id="svg_41" fill="#f2f2f2" ry="15" rx="61" cy="483.72833" cx="655.48109"/>
  <ellipse id="svg_42" fill="#d0cde1" ry="12.29508" rx="50" cy="483.72833" cx="655.48109"/>
  <ellipse id="svg_43" fill="#f2f2f2" ry="15" rx="61" cy="495.72833" cx="428.48109"/>
  <ellipse id="svg_44" fill="#d0cde1" ry="12.29508" rx="50" cy="495.72833" cx="428.48109"/>
  <ellipse id="svg_45" fill="#db485b" ry="4.59164" rx="29.08039" cy="478.07756" cx="654.06147"/>
  <ellipse id="svg_46" fill="#6c63ff" ry="4.97428" rx="9.18328" cy="471.38142" cx="638.56469"/>
  <ellipse id="svg_47" fill="#029811" ry="4.97428" rx="9.18328" cy="471.38142" cx="635.12096"/>
  <ellipse id="svg_48" fill="#029811" ry="4.97428" rx="9.18328" cy="472.52933" cx="675.29781"/>
  <ellipse id="svg_49" fill="#029811" ry="4.97428" rx="9.18328" cy="471.38142" cx="654.25279"/>
  <ellipse id="svg_50" fill="#029811" ry="4.97428" rx="9.18328" cy="471.38142" cx="669.9409"/>
  <path id="svg_51" fill="#d67900" d="m681.802633,468.32033q-24.89544,8.44813 -55.865,0l0,-0.775a22.82,22.82 0 0 1 21.66948,-22.80447a143.33168,143.33168 0 0 1 14.7743,0.01892a20.62039,20.62039 0 0 1 19.42122,20.63684l0,2.92371z"/>
  <path id="svg_52" fill="#d67900" d="m673.654443,489.40642a183.55732,183.55732 0 0 1 -36.89012,0a11.78631,11.78631 0 0 1 -10.63532,-11.71149l58.16077,0a11.78632,11.78632 0 0 1 -10.63533,11.71149z"/>
  <path id="svg_53" fill="#d0cde1" d="m646.217423,451.86695a10.94342,10.94342 0 0 1 -8.418,0a10.94342,10.94342 0 0 1 8.418,0z"/>
  <path id="svg_54" fill="#d0cde1" d="m654.635433,455.31068a10.94342,10.94342 0 0 1 -8.418,0a10.94342,10.94342 0 0 1 8.418,0z"/>
  <path id="svg_55" fill="#d0cde1" d="m655.400703,449.18849a10.94343,10.94343 0 0 1 -8.418,0a10.94342,10.94342 0 0 1 8.418,0z"/>
  <path id="svg_56" fill="#d0cde1" d="m671.088803,449.18849a10.9434,10.9434 0 0 1 -8.418,0a10.9434,10.9434 0 0 1 8.418,0z"/>
  <path id="svg_57" fill="#d0cde1" d="m666.879803,452.63222a10.94342,10.94342 0 0 1 -8.418,0a10.94342,10.94342 0 0 1 8.418,0z"/>
  <ellipse id="svg_58" fill="#db3b50" ry="4.59164" rx="29.08039" cy="490.07756" cx="428.06147"/>
  <ellipse id="svg_59" fill="#6c63ff" ry="4.97428" rx="9.18328" cy="483.38142" cx="412.56469"/>
  <ellipse id="svg_60" fill="#029811" ry="4.97428" rx="9.18328" cy="483.38142" cx="409.12096"/>
  <ellipse id="svg_61" fill="#029811" ry="4.97428" rx="9.18328" cy="484.52933" cx="449.29781"/>
  <ellipse id="svg_62" fill="#029811" ry="4.97428" rx="9.18328" cy="483.38142" cx="428.25279"/>
  <ellipse id="svg_63" fill="#029811" ry="4.97428" rx="9.18328" cy="483.38142" cx="443.9409"/>
  <path stroke="null" id="svg_64" fill="#d67900" d="m455.802633,480.32033q-24.89544,8.44813 -55.865,0l0,-0.775a22.82,22.82 0 0 1 21.66948,-22.80447a143.33168,143.33168 0 0 1 14.7743,0.01892a20.62039,20.62039 0 0 1 19.42122,20.63684l0,2.92371z"/>
  <path id="svg_65" fill="#d67900" d="m447.654443,501.40642a183.55732,183.55732 0 0 1 -36.89012,0a11.78631,11.78631 0 0 1 -10.63532,-11.71149l58.16077,0a11.78632,11.78632 0 0 1 -10.63533,11.71149z"/>
  <path id="svg_66" fill="#d0cde1" d="m420.217423,463.86695a10.94342,10.94342 0 0 1 -8.418,0a10.94342,10.94342 0 0 1 8.418,0z"/>
  <path id="svg_67" fill="#d0cde1" d="m428.635433,467.31068a10.94342,10.94342 0 0 1 -8.418,0a10.94343,10.94343 0 0 1 8.418,0z"/>
  <path id="svg_68" fill="#d0cde1" d="m429.400703,461.18849a10.94343,10.94343 0 0 1 -8.418,0a10.94343,10.94343 0 0 1 8.418,0z"/>
  <path id="svg_69" fill="#d0cde1" d="m445.088803,461.18849a10.9434,10.9434 0 0 1 -8.418,0a10.9434,10.9434 0 0 1 8.418,0z"/>
  <path id="svg_70" fill="#d0cde1" d="m440.879803,464.63222a10.94342,10.94342 0 0 1 -8.418,0a10.94343,10.94343 0 0 1 8.418,0z"/>
  <path id="svg_71" fill="#5fbc21" d="m707.958113,479.66397l0.14051,3.09747l0.17923,4.01748s-18.45167,1.04279 -22.16874,4.9706a2.26385,2.26385 0 0 0 -0.23714,0.27264l-7.39086,-1.61784l-0.01832,-3.64094s0.10193,-0.05675 0.30015,-0.16369c0.04532,-0.02342 0.10195,-0.05349 0.15861,-0.08355a67.26989,67.26989 0 0 1 29.03656,-6.85217z"/>
  <path id="svg_73" opacity="0.1" fill="#fff" d="m678.921533,486.51614l5.50992,1.37573l1.67768,3.85765a2.26385,2.26385 0 0 0 -0.23714,0.27264l-7.39088,-1.61784l-0.01832,-3.64094s0.10193,-0.05675 0.30015,-0.16369c0.0453,-0.02342 0.10193,-0.05349 0.15859,-0.08355z"/>
  <path id="svg_74" fill="#5fbc21" d="m484.958113,492.66397l0.14051,3.09747l0.17923,4.01748s-18.45167,1.04279 -22.16874,4.9706a2.26385,2.26385 0 0 0 -0.23714,0.27264l-7.39086,-1.61784l-0.01832,-3.64094s0.10193,-0.05675 0.30015,-0.16369c0.04532,-0.02342 0.10195,-0.05349 0.15861,-0.08355a67.26989,67.26989 0 0 1 29.03656,-6.85217z"/>
  <path id="svg_75" opacity="0.1" d="m484.958113,492.66397l0.14051,3.09747c-8.18223,0.253 -23.66719,5.13043 -23.66719,5.13043l-5.66853,-1.29218a67.0834,67.0834 0 0 1 29.19521,-6.93572z"/>
  <path id="svg_76" opacity="0.1" fill="#fff" d="m455.921533,499.51614l5.50992,1.37573l1.67768,3.85765a2.26385,2.26385 0 0 0 -0.23714,0.27264l-7.39088,-1.61784l-0.01832,-3.64094s0.10193,-0.05675 0.30015,-0.16369c0.0453,-0.02342 0.10193,-0.05349 0.15859,-0.08355z"/>
  <path id="svg_77" fill="#3f3d56" d="m819.086563,386.8837a18.45726,18.45726 0 0 0 -5.44763,-3.76373l0,-38.85618a1.71788,1.71788 0 0 0 -1.71788,-1.71788l-9.61909,0a1.71788,1.71788 0 0 0 -1.71788,1.71788l0,38.11083a17.4383,17.4383 0 0 0 -11.9485,16.54609l0,83.35185a7.63819,7.63819 0 0 0 7.6382,7.63819l20.60452,0a7.60279,7.60279 0 0 0 7.60279,-7.60278l0,-82.40484a18.35464,18.35464 0 0 0 -5.39453,-13.01943z"/>
  <rect id="svg_78" fill="#029811" height="47.35147" width="35.8455" y="411.13916" x="788.63559"/>
  <path id="svg_79" fill="#029811" d="m814.413373,345.20113l-0.77444,0l0,-0.93734a1.71788,1.71788 0 0 0 -1.71788,-1.71788l-9.61909,0a1.71788,1.71788 0 0 0 -1.71788,1.71788l0,0.93734l-0.77444,0l0,3.98284l0.77444,0l0,20.3567l13.05485,0l0,-20.3567l0.77444,0l0,-3.98284z"/>
  <path id="svg_80" fill="#d0cde1" d="m532.075173,420.60993c-0.94871,-2.02464 -1.69746,-3.45672 -1.95955,-3.94957c-16.09007,3.97066 -26.82534,0.61532 -28.51827,0.02189c-0.8278,1.56345 -5.99633,11.557 -8.08531,21.13828c-1.88708,8.64229 -0.79179,14.436 3.25557,17.2203l0.11993,0.08543l0.02632,0.01758c4.46767,2.94386 8.72955,5.5511 12.666,7.74853q0.79567,0.44281 1.50019,0.82295l0.05026,0.02729l0.03538,0.04487a23.96531,23.96531 0 0 1 1.50688,2.12608a8.36148,8.36148 0 0 1 1.52854,4.13306l0,42.924l-0.27115,0.00572c-10.26339,0.20924 -16.61609,1.9492 -16.61609,3.441c0,1.63668 7.61765,3.4605 18.54836,3.4605s18.54824,-1.82382 18.54824,-3.4605c0,-1.46966 -6.24516,-3.19991 -16.33436,-3.43294l-0.27223,-0.00647l0.25368,-39.70518a17.51045,17.51045 0 0 1 1.82635,-7.74692c0.20374,-0.40473 0.42269,-0.79836 0.6507,-1.16928c0.18314,-0.29844 0.37718,-0.58966 0.57661,-0.86459l0.03656,-0.05053l0.05479,-0.03q0.75813,-0.414 1.61,-0.89726l0.06665,-0.03624c3.72562,-2.10414 7.73986,-4.57138 11.93249,-7.3349c3.7433,-2.46778 5.04665,-7.45549 3.87381,-14.8242c-1.11749,-7.02589 -4.2116,-14.59575 -6.61035,-19.7089z"/>
  <path id="svg_81" fill="#fcdbe7" d="m533.036623,454.24326c-4.39567,2.89726 -8.02471,5.0702 -10.8,6.63581l-0.00251,0a63.20229,63.20229 0 0 0 -12.14161,0.341c-2.845,-1.588 -6.68312,-3.86549 -11.40485,-6.97681c-0.0448,-0.02987 -0.0896,-0.05974 -0.1344,-0.0921l0,-0.00249c-4.331,-2.97941 -4.438,-9.28916 -3.0292,-15.74079c3.58425,-0.39825 9.29913,-0.224 16.97786,2.51893c9.09253,3.24821 18.61067,1.41129 24.12642,-0.25887c0.90602,5.69246 0.35344,10.97425 -3.59171,13.57532z"/>
  <circle id="svg_82" fill="#fcdbe7" r="1.24453" cy="434.82862" cx="506.90154"/>
  <circle id="svg_83" fill="#fff" r="1.24453" cy="446.27828" cx="503.41686"/>
  <circle id="svg_84" fill="#fcdbe7" r="0.74672" cy="437.81549" cx="509.8884"/>
  <circle id="svg_85" fill="#fff" r="0.74672" cy="452.00311" cx="512.87527"/>
  <circle id="svg_86" fill="#fff" r="0.74672" cy="452.74983" cx="507.64825"/>
  <circle stroke="null" id="svg_87" fill="#fcdbe7" r="0.74672" cy="427.85927" cx="522.83149"/>
  <path id="svg_88" fill="#d0cde1" d="m590.453603,380.14421c-0.94871,-2.02465 -1.69746,-3.45673 -1.95955,-3.94958c-16.09007,3.97066 -26.82534,0.61532 -28.51827,0.02189c-0.8278,1.56345 -5.99633,11.557 -8.08531,21.13828c-1.88708,8.6423 -0.79179,14.436 3.25556,17.22031l0.11994,0.08542l0.02632,0.01758c4.46767,2.94386 8.72955,5.5511 12.666,7.74853q0.79568,0.44281 1.50019,0.82295l0.05026,0.02729l0.03538,0.04487a23.96539,23.96539 0 0 1 1.50688,2.12609a8.36142,8.36142 0 0 1 1.52855,4.13309l0,42.924l-0.27115,0.00571c-10.26339,0.20925 -16.61609,1.9492 -16.61609,3.441c0,1.63669 7.61765,3.4605 18.54836,3.4605s18.54824,-1.82381 18.54824,-3.4605c0,-1.46966 -6.24516,-3.19991 -16.33436,-3.43294l-0.27224,-0.00647l0.25369,-39.70518a17.51031,17.51031 0 0 1 1.82635,-7.74692c0.20374,-0.40473 0.42269,-0.79836 0.6507,-1.16928c0.18314,-0.29844 0.37718,-0.58966 0.57661,-0.86458l0.03656,-0.05054l0.05479,-0.03q0.75813,-0.414 1.61,-0.89727l0.06665,-0.03624c3.72562,-2.10414 7.73985,-4.57138 11.93249,-7.3349c3.7433,-2.46778 5.04665,-7.45548 3.87381,-14.8242c-1.1175,-7.0259 -4.21161,-14.59577 -6.61036,-19.70891z"/>
  <path id="svg_89" fill="#fcdbe7" d="m591.415053,413.77753c-4.39567,2.89726 -8.02471,5.0702 -10.8,6.63581l-0.00249,0a63.20229,63.20229 0 0 0 -12.14161,0.341c-2.845,-1.588 -6.68312,-3.86549 -11.40485,-6.97681c-0.0448,-0.02987 -0.0896,-0.05974 -0.13441,-0.0921l0,-0.00249c-4.331,-2.9794 -4.438,-9.28916 -3.02919,-15.74078c3.58425,-0.39826 9.29913,-0.224 16.97786,2.51892c9.09253,3.24821 18.61067,1.41129 24.12642,-0.25887c0.906,5.69247 0.35342,10.97425 -3.59173,13.57532z"/>
  <circle id="svg_90" fill="#fcdbe7" r="1.24453" cy="394.3629" cx="565.27997"/>
  <circle id="svg_91" fill="#fff" r="1.24453" cy="405.81255" cx="561.79529"/>
  <circle id="svg_92" fill="#fcdbe7" r="0.74672" cy="397.34976" cx="568.26683"/>
  <circle id="svg_93" fill="#fff" r="0.74672" cy="411.53738" cx="571.2537"/>
  <circle id="svg_94" fill="#fff" r="0.74672" cy="412.2841" cx="566.02668"/>
  <circle id="svg_95" fill="#fcdbe7" r="0.74672" cy="387.39354" cx="581.20992"/>
 </g>
</svg>